<svg width="21" height="21" viewBox="0 0 21 21" fill="none" xmlns="http://www.w3.org/2000/svg">
<path d="M3.40937 15.0911C4.15901 15.0911 4.76893 14.4813 4.76893 13.7316C4.76893 12.9819 4.15901 12.372 3.40937 12.372C2.65973 12.372 2.0498 12.9819 2.0498 13.7316C2.0498 14.4813 2.65973 15.0911 3.40937 15.0911ZM3.40937 13.2087C3.69772 13.2087 3.93228 13.4432 3.93228 13.7316C3.93228 14.0199 3.69772 14.2545 3.40937 14.2545C3.12101 14.2545 2.88646 14.0199 2.88646 13.7316C2.88646 13.4432 3.12101 13.2087 3.40937 13.2087Z" fill="white"/>
<path d="M7.13249 14.8401C7.74375 14.8401 8.24106 14.3428 8.24106 13.7316C8.24106 13.1203 7.74375 12.623 7.13249 12.623C6.52123 12.623 6.02393 13.1203 6.02393 13.7316C6.02393 14.3428 6.52123 14.8401 7.13249 14.8401ZM7.13249 13.4597C7.28242 13.4597 7.4044 13.5817 7.4044 13.7316C7.4044 13.8815 7.28242 14.0035 7.13249 14.0035C6.98256 14.0035 6.86058 13.8815 6.86058 13.7316C6.86058 13.5817 6.98256 13.4597 7.13249 13.4597Z" fill="white"/>
<path d="M14.7252 14.1499H18.4902C18.7212 14.1499 18.9085 13.9626 18.9085 13.7316C18.9085 13.5006 18.7212 13.3132 18.4902 13.3132H14.7252C14.4942 13.3132 14.3069 13.5006 14.3069 13.7316C14.3069 13.9626 14.4942 14.1499 14.7252 14.1499Z" fill="white"/>
<path d="M20.5817 10.4477H19.243V5.39642C19.243 5.16542 19.0557 4.97809 18.8247 4.97809C18.5937 4.97809 18.4064 5.16542 18.4064 5.39642V10.4477H0.418327C0.187285 10.4477 0 10.635 0 10.866V16.5971V18.0403C0 18.2713 0.187285 18.4587 0.418327 18.4587H3.76494C3.99598 18.4587 4.18327 18.2713 4.18327 18.0403V17.0154H16.8167V18.0403C16.8167 18.2713 17.004 18.4587 17.2351 18.4587H20.5817C20.8127 18.4587 21 18.2713 21 18.0403V16.5971V10.866C21 10.635 20.8127 10.4477 20.5817 10.4477ZM3.34661 17.622H0.836653V17.0154H3.34661V17.622ZM20.1633 17.622H17.6534V17.0154H20.1633V17.622ZM20.1633 16.1788H0.836653V11.2844H20.1633V16.1788Z" fill="white"/>
<path d="M18.8248 4.18327C19.0559 4.18327 19.2431 3.99594 19.2431 3.76494V2.95966C19.2431 2.72866 19.0559 2.54134 18.8248 2.54134C18.5938 2.54134 18.4065 2.72866 18.4065 2.95966V3.76494C18.4065 3.99594 18.5938 4.18327 18.8248 4.18327Z" fill="white"/>
</svg>
