<svg width="20" height="20" viewBox="0 0 20 20" fill="none" xmlns="http://www.w3.org/2000/svg">
<path d="M15.5068 10.8654H13.9163V4.30486H12.7235V10.8654H1.98809C0.891813 10.8654 0 11.7571 0 12.8535V17.2277C0 18.3239 0.891813 19.2158 1.98809 19.2158H15.5069C16.6031 19.2158 17.495 18.324 17.495 17.2277V12.8535C17.4949 11.7571 16.6029 10.8654 15.5068 10.8654ZM16.3021 17.2274C16.3021 17.6658 15.9454 18.0227 15.5068 18.0227H1.98809C1.54953 18.0227 1.19286 17.6658 1.19286 17.2274V12.8535C1.19286 12.415 1.54953 12.0583 1.98809 12.0583H15.5069C15.9455 12.0583 16.3021 12.415 16.3021 12.8535V17.2274Z" fill="white"/>
<path d="M3.84334 14.4439H2.48511V15.6368H3.84334V14.4439Z" fill="white"/>
<path d="M6.06371 14.4439H4.70508V15.6368H6.06371V14.4439Z" fill="white"/>
<path d="M8.28352 14.4439H6.92529V15.6368H8.28352V14.4439Z" fill="white"/>
<path d="M9.18461 8.30817C8.29215 7.41596 7.80069 6.22968 7.80069 4.96787C7.80069 3.70621 8.29215 2.51994 9.18421 1.62757L8.34088 0.784241C7.2234 1.90196 6.60791 3.38783 6.60791 4.96787C6.60791 6.54839 7.22365 8.03426 8.34128 9.15174L9.18461 8.30817Z" fill="white"/>
<path d="M9.55726 7.93544L10.4006 7.09188C9.83318 6.52471 9.52066 5.77041 9.52066 4.96787C9.52066 4.16549 9.83302 3.41119 10.4006 2.84402L9.55726 2.00046C8.7646 2.79289 8.32788 3.84678 8.32788 4.96787C8.32788 6.08912 8.7646 7.14301 9.55726 7.93544Z" fill="white"/>
<path d="M10.8302 6.66246L11.6735 5.81913C11.4463 5.59186 11.3214 5.28953 11.3214 4.96786C11.3214 4.64618 11.4465 4.34377 11.6735 4.11675L10.8302 3.27342C10.3778 3.72571 10.1287 4.32772 10.1287 4.96786C10.1287 5.6084 10.3778 6.21017 10.8302 6.66246Z" fill="white"/>
<path d="M18.2672 0.784241L17.4238 1.62757C18.3159 2.52002 18.8073 3.70629 18.8073 4.96787C18.8073 6.22968 18.3159 7.41596 17.4238 8.30841L18.2672 9.15174C19.3846 8.03402 20.0001 6.54815 20.0001 4.96787C20.0002 3.38775 19.3849 1.90188 18.2672 0.784241Z" fill="white"/>
<path d="M16.2075 7.09212L17.0512 7.93544C17.8437 7.14261 18.2805 6.08856 18.2805 4.96787C18.2805 3.84678 17.8439 2.79297 17.0511 2.00046L16.2078 2.84402C16.7752 3.41119 17.0877 4.16549 17.0877 4.96787C17.0877 5.77009 16.7752 6.52455 16.2075 7.09212Z" fill="white"/>
<path d="M15.7779 6.66247C16.2306 6.20978 16.4799 5.60802 16.4799 4.96788C16.4799 4.32814 16.2307 3.72637 15.7787 3.27368L14.9346 4.1166C15.162 4.34427 15.2871 4.6466 15.2871 4.96788C15.2871 5.28955 15.1618 5.59172 14.9346 5.81915L15.7779 6.66247Z" fill="white"/>
</svg>
