<svg width="18" height="22" viewBox="0 0 18 22" fill="none" xmlns="http://www.w3.org/2000/svg">
<path d="M10.9624 6.26209C12.554 5.16771 14.672 5.19659 16.2328 6.33385C16.3896 6.44801 16.424 6.66764 16.3098 6.82435C16.2411 6.91867 16.1342 6.96871 16.0258 6.96871C15.9541 6.96871 15.8817 6.94676 15.8193 6.90135C14.4988 5.93916 12.7069 5.91468 11.3603 6.84064C11.2005 6.9505 10.9819 6.91006 10.8721 6.75026C10.7622 6.5905 10.8027 6.37195 10.9624 6.26209Z" fill="white"/>
<path d="M11.9085 7.51154C12.9287 6.81002 14.2865 6.82842 15.287 7.5575C15.4438 7.67167 15.4782 7.8913 15.364 8.04801C15.2953 8.14233 15.1884 8.19237 15.08 8.19237C15.0083 8.19237 14.9359 8.17046 14.8736 8.12501C14.1132 7.57103 13.0816 7.55704 12.3063 8.09009C12.1465 8.19991 11.928 8.15951 11.8181 7.99971C11.7082 7.83995 11.7487 7.6214 11.9085 7.51154Z" fill="white"/>
<path d="M12.8367 8.86145C13.0492 8.71536 13.301 8.63812 13.5648 8.63812C13.8377 8.63812 14.1066 8.72462 14.3222 8.88162C14.4789 8.99574 14.5134 9.21536 14.3992 9.37208C14.3305 9.46645 14.2236 9.51648 14.1152 9.51648C14.0434 9.51644 13.9711 9.49458 13.9087 9.44908C13.8124 9.37891 13.6903 9.34025 13.5648 9.34025C13.4454 9.34025 13.328 9.37573 13.2344 9.44009C13.0746 9.55 12.8561 9.50942 12.7462 9.34966C12.6364 9.18985 12.6769 8.97131 12.8367 8.86145Z" fill="white"/>
<path d="M4.53639 1.40425C4.73027 1.40425 4.88745 1.56139 4.88745 1.75531V2.59787C4.88745 2.7918 4.73027 2.94893 4.53639 2.94893C4.34251 2.94893 4.18532 2.7918 4.18532 2.59787V1.75531C4.18532 1.56139 4.34246 1.40425 4.53639 1.40425Z" fill="white"/>
<path d="M3.13209 1.40425C3.32597 1.40425 3.48315 1.56139 3.48315 1.75531V2.59787C3.48315 2.7918 3.32597 2.94893 3.13209 2.94893C2.93821 2.94893 2.78103 2.7918 2.78103 2.59787V1.75531C2.78103 1.56139 2.93816 1.40425 3.13209 1.40425Z" fill="white"/>
<path d="M1.02573 3.65106H1.3768V0.351064C1.3768 0.157136 1.53398 0 1.72786 0H5.94063C6.13451 0 6.29169 0.157136 6.29169 0.351064V3.65106H6.64275C6.83663 3.65106 6.99382 3.8082 6.99382 4.00213V8.21489C6.99382 9.14343 6.26904 9.9059 5.35552 9.96637V12.1936C5.35552 12.3875 5.19834 12.5447 5.00446 12.5447H4.88743V16.0904C4.88743 18.1875 6.59356 19.8936 8.69063 19.8936C10.7877 19.8936 12.4938 18.1875 12.4938 16.0904V14.9787H9.75725C9.56337 14.9787 9.40619 14.8216 9.40619 14.6277V0.351064C9.40619 0.157136 9.56337 0 9.75725 0H17.4304C17.6243 0 17.7815 0.157136 17.7815 0.351064V14.6277C17.7815 14.8216 17.6243 14.9787 17.4304 14.9787H14.6002V16.0904C14.6002 19.349 11.9491 22 8.69058 22C5.43205 22 2.781 19.349 2.781 16.0904V12.5447H2.66398C2.4701 12.5447 2.31292 12.3875 2.31292 12.1936V9.96637C1.3994 9.9059 0.674622 9.14343 0.674622 8.21489V4.00213C0.674669 3.8082 0.831804 3.65106 1.02573 3.65106ZM5.58956 0.702128H2.07892V3.65106H5.58956V0.702128ZM17.0794 14.2766V0.702128H10.1083V14.2766H17.0794ZM3.48318 16.0904C3.48318 18.9618 5.81925 21.2979 8.69063 21.2979C11.562 21.2979 13.8981 18.9618 13.8981 16.0904V14.9787H13.1959V16.0904C13.1959 18.5746 11.1748 20.5957 8.69063 20.5957C6.20641 20.5957 4.18531 18.5746 4.18531 16.0904V12.5447H3.48318V16.0904ZM1.3768 8.21489C1.3768 8.7956 1.84923 9.26809 2.42999 9.26809H3.6002C3.79408 9.26809 3.95126 9.42522 3.95126 9.61915C3.95126 9.81308 3.79408 9.97021 3.6002 9.97021H3.01509V11.8426H4.65339V9.61915C4.65339 9.42522 4.81058 9.26809 5.00446 9.26809H5.2385C5.81925 9.26809 6.29169 8.7956 6.29169 8.21489V4.35319H1.3768V8.21489Z" fill="white"/>
</svg>
